<?xml version="1.0" standalone="no"?>
<!DOCTYPE svg PUBLIC "-//W3C//DTD SVG 20010904//EN"
 "http://www.w3.org/TR/2001/REC-SVG-20010904/DTD/svg10.dtd">
<svg version="1.0" xmlns="http://www.w3.org/2000/svg"
 width="450.000000pt" height="450.000000pt" viewBox="0 0 450.000000 450.000000"
 preserveAspectRatio="xMidYMid meet">
<metadata>
Created by potrace 1.11, written by Peter Selinger 2001-2013
</metadata>
<g transform="translate(0.000000,450.000000) scale(0.100000,-0.100000)"
fill="#000000" stroke="none">
<path d="M1074 4351 c-70 -17 -131 -70 -163 -141 -20 -45 -21 -51 -18 -1970
l2 -1925 22 -40 c25 -47 64 -85 113 -111 33 -18 85 -19 1199 -22 1049 -2 1169
-1 1213 14 61 20 101 53 136 113 l27 46 3 1913 c1 1302 -1 1926 -8 1953 -15
53 -68 119 -120 149 l-45 25 -1165 2 c-641 0 -1179 -2 -1196 -6z m2376 -2100
l0 -1359 -759 0 -759 0 0 538 0 538 677 0 c372 0 690 1 706 1 l30 1 0 358 c1
196 -2 359 -6 362 -4 3 -320 5 -703 5 -611 0 -697 2 -700 15 -3 8 -5 214 -4
458 l0 442 759 0 759 0 0 -1359z m-1112 -1658 c53 -39 74 -83 70 -141 -5 -59
-27 -94 -79 -130 -28 -20 -43 -23 -87 -20 -171 14 -210 241 -52 307 37 16 117
7 148 -16z"/>
</g>
</svg>
