<?xml version="1.0" standalone="no"?>
<!DOCTYPE svg PUBLIC "-//W3C//DTD SVG 20010904//EN"
 "http://www.w3.org/TR/2001/REC-SVG-20010904/DTD/svg10.dtd">
<svg version="1.0" xmlns="http://www.w3.org/2000/svg"
 width="600.000000pt" height="600.000000pt" viewBox="0 0 600.000000 600.000000"
 preserveAspectRatio="xMidYMid meet">
<metadata>
Created by potrace 1.14, written by Peter Selinger 2001-2017
</metadata>
<g transform="translate(0.000000,600.000000) scale(0.100000,-0.100000)"
fill="#000000" stroke="none">
<path d="M403 5986 c-185 -45 -330 -186 -383 -371 -18 -63 -19 -106 -20 -636
l0 -569 205 0 205 0 0 540 c0 582 1 593 52 621 12 7 26 14 31 15 4 1 252 2
552 3 l545 1 0 205 0 205 -567 -1 c-422 0 -581 -4 -620 -13z"/>
<path d="M4410 5795 l0 -205 545 0 c599 0 588 1 620 -60 13 -25 15 -106 15
-575 l0 -545 205 0 206 0 -4 588 c-3 640 -1 614 -63 733 -42 78 -136 170 -214
207 -126 61 -122 60 -742 61 l-568 1 0 -205z"/>
<path d="M2720 5136 c-146 -41 -249 -164 -264 -317 -5 -50 -7 -93 -21 -379 -3
-58 -7 -148 -10 -200 -3 -52 -8 -149 -11 -215 -3 -66 -7 -147 -9 -180 -5 -77
-19 -362 -31 -618 -3 -76 -7 -144 -8 -152 -1 -8 -51 -65 -112 -127 -197 -203
-228 -249 -254 -364 -8 -34 -11 -416 -11 -1264 0 -668 0 -1239 1 -1267 l0 -53
204 0 203 0 1 1223 c0 672 1 1236 1 1252 1 31 1 32 214 255 152 159 156 171
172 505 4 66 8 149 10 185 2 36 6 128 10 205 3 77 8 169 10 205 2 36 7 126 10
200 4 74 8 160 10 190 2 30 7 125 11 210 4 85 8 173 10 195 1 22 3 57 3 78 l1
37 140 0 140 0 1 -37 c0 -21 2 -63 4 -93 2 -30 6 -104 9 -165 3 -60 8 -153 11
-205 3 -52 7 -142 10 -200 12 -262 16 -331 20 -415 3 -49 7 -139 10 -200 21
-430 24 -462 50 -522 29 -64 44 -85 133 -178 200 -211 212 -225 213 -252 0
-16 1 -578 1 -1250 l0 -1223 204 0 204 0 0 43 c2 453 -1 2499 -4 2517 -12 74
-75 192 -135 251 -41 40 -227 242 -232 252 -4 7 -10 86 -13 176 -4 91 -9 187
-11 215 -2 28 -6 112 -10 186 -3 74 -8 167 -10 205 -2 39 -6 126 -10 195 -3
69 -7 163 -10 210 -2 47 -7 132 -9 190 -3 58 -8 157 -11 220 -10 208 -18 243
-70 326 -45 71 -117 123 -202 149 -61 18 -498 19 -563 1z"/>
<path d="M1 1031 c0 -615 2 -628 61 -749 43 -86 134 -178 218 -219 126 -61
126 -61 745 -62 l565 -1 0 205 0 205 -532 1 c-293 0 -543 2 -556 5 -39 7 -59
22 -76 58 -14 30 -16 96 -16 575 l0 541 -205 0 -205 0 1 -559z"/>
<path d="M5590 1045 c0 -476 -2 -550 -16 -576 -30 -59 -31 -59 -624 -59 l-540
0 0 -205 0 -205 573 1 c566 1 573 1 643 23 181 58 303 183 354 362 18 62 19
107 20 635 l0 569 -205 0 -205 0 0 -545z"/>
</g>
</svg>
